<svg width="242" height="116" viewBox="0 0 242 116" fill="none" xmlns="http://www.w3.org/2000/svg">
<path d="M82.7696 69.1831L82.7887 57.5034L101.656 57.5343C102.189 57.5347 102.71 57.3772 103.153 57.0817C103.596 56.7863 103.942 56.3661 104.147 55.8742C104.351 55.3823 104.405 54.8408 104.302 54.3181C104.199 53.7954 103.944 53.315 103.568 52.9374L60.5137 9.74189C60.0092 9.23632 59.3246 8.95169 58.6103 8.95052C57.8961 8.94936 57.2106 9.23174 56.7044 9.73566L13.5088 52.79C13.1318 53.1663 12.8747 53.646 12.77 54.1683C12.6653 54.6907 12.7178 55.2323 12.9208 55.7249C13.1238 56.2174 13.4682 56.6388 13.9106 56.9357C14.3529 57.2326 14.8733 57.3918 15.406 57.3931L34.2732 57.424L34.254 69.1037C34.2529 69.8185 34.5357 70.5046 35.0404 71.0108C35.545 71.5171 36.2301 71.8022 36.9449 71.8034L80.0699 71.874C80.7847 71.8752 81.4708 71.5923 81.977 71.0877C82.4833 70.583 82.7684 69.8979 82.7696 69.1831ZM39.6491 66.4172L39.6682 54.7375C39.6694 54.0227 39.3865 53.3367 38.8819 52.8304C38.3772 52.3241 37.6921 52.039 36.9773 52.0378L21.924 52.0132L58.5997 15.4573L95.1555 52.133L80.1022 52.1084C79.3874 52.1072 78.7014 52.3901 78.1951 52.8947C77.6888 53.3993 77.4037 54.0844 77.4025 54.7993L77.3834 66.479L39.6491 66.4172ZM80.0228 100.624L36.8979 100.553C36.183 100.552 35.498 100.267 34.9933 99.7608C34.4887 99.2545 34.2058 98.5685 34.207 97.8536C34.2082 97.1388 34.4933 96.4537 34.9995 95.9491C35.5058 95.4444 36.1919 95.1616 36.9067 95.1627L80.0317 95.2333C80.7465 95.2345 81.4316 95.5196 81.9362 96.0259C82.4409 96.5322 82.7237 97.2182 82.7226 97.933C82.7214 98.6479 82.4363 99.333 81.93 99.8376C81.4237 100.342 80.7377 100.625 80.0228 100.624ZM80.0464 86.249L36.9214 86.1784C36.2066 86.1772 35.5215 85.8921 35.0168 85.3858C34.5122 84.8795 34.2294 84.1935 34.2305 83.4787C34.2317 82.7638 34.5168 82.0787 35.0231 81.5741C35.5294 81.0694 36.2154 80.7866 36.9302 80.7878L80.0552 80.8583C80.77 80.8595 81.4551 81.1446 81.9598 81.6509C82.4644 82.1572 82.7472 82.8432 82.7461 83.5581C82.7449 84.2729 82.4598 84.958 81.9535 85.4626C81.4472 85.9673 80.7612 86.2501 80.0464 86.249Z" fill="#C7848D"/>
<path d="M185.731 106.194L228.773 63.3131C229.149 62.9383 229.405 62.4614 229.507 61.9426C229.61 61.4239 229.556 60.8865 229.351 60.3984C229.146 59.9103 228.8 59.4934 228.357 59.2003C227.914 58.9072 227.393 58.7511 226.86 58.7516L207.993 58.7879L207.971 47.1967C207.969 46.4873 207.684 45.8074 207.177 45.3068C206.671 44.8061 205.985 44.5256 205.27 44.527L162.145 44.6098C161.43 44.6112 160.745 44.8943 160.241 45.3969C159.736 45.8995 159.454 46.5805 159.455 47.2899L159.477 58.8811L140.61 58.9173C140.077 58.9188 139.557 59.0769 139.115 59.3717C138.673 59.6665 138.328 60.0848 138.125 60.5736C137.923 61.0625 137.87 61.6001 137.975 62.1185C138.08 62.6368 138.337 63.1127 138.714 63.4861L181.921 106.201C182.428 106.701 183.113 106.981 183.828 106.98C184.542 106.979 185.226 106.696 185.731 106.194ZM147.13 64.2546L162.183 64.2257C162.898 64.2243 163.583 63.9412 164.087 63.4385C164.592 62.9359 164.874 62.255 164.873 61.5456L164.851 49.9544L202.585 49.8819L202.607 61.4731C202.609 62.1825 202.894 62.8624 203.4 63.363C203.907 63.8637 204.593 64.1442 205.308 64.1428L220.361 64.1139L183.815 100.523L147.13 64.2546ZM205.226 21.3446L162.101 21.4274C161.386 21.4288 160.7 21.1483 160.193 20.6477C159.687 20.147 159.402 19.4672 159.4 18.7577C159.399 18.0483 159.682 17.3674 160.186 16.8648C160.691 16.3622 161.376 16.079 162.09 16.0777L205.215 15.9948C205.93 15.9935 206.616 16.274 207.123 16.7746C207.629 17.2753 207.914 17.9551 207.916 18.6645C207.917 19.374 207.634 20.0549 207.13 20.5575C206.625 21.0601 205.94 21.3432 205.226 21.3446ZM205.253 35.6107L162.128 35.6935C161.413 35.6949 160.727 35.4144 160.221 34.9137C159.714 34.4131 159.429 33.7332 159.428 33.0238C159.426 32.3144 159.709 31.6335 160.213 31.1309C160.718 30.6282 161.403 30.3451 162.118 30.3437L205.243 30.2609C205.958 30.2595 206.644 30.54 207.15 31.0407C207.657 31.5414 207.942 32.2212 207.943 32.9306C207.945 33.64 207.662 34.321 207.157 34.8236C206.653 35.3262 205.968 35.6093 205.253 35.6107Z" fill="#004EB3"/>
</svg>
